<mxfile host="app.diagrams.net" modified="2023-11-20T08:38:21.877Z" agent="Mozilla/5.0 (X11; Ubuntu; Linux x86_64; rv:109.0) Gecko/20100101 Firefox/119.0" etag="TaheNhQEdT-pRQ4v7CI7" version="22.1.3" type="device">
  <diagram name="ページ1" id="fnKAm-Ffwe4pNwtjzASK">
    <mxGraphModel dx="2074" dy="1145" grid="1" gridSize="10" guides="1" tooltips="1" connect="1" arrows="1" fold="1" page="1" pageScale="1" pageWidth="827" pageHeight="1169" math="1" shadow="0">
      <root>
        <mxCell id="0" />
        <mxCell id="1" parent="0" />
        <mxCell id="7mtqnpq1YcAFe5gH_NoR-3" value="&lt;font style=&quot;font-size: 40px;&quot;&gt;\(\mathbf{W}\in\mathbb{R}^{d\times d}\)&lt;/font&gt;" style="text;html=1;strokeColor=none;fillColor=none;align=center;verticalAlign=middle;whiteSpace=wrap;rounded=0;" vertex="1" parent="1">
          <mxGeometry x="70" y="500" width="430" height="160" as="geometry" />
        </mxCell>
        <mxCell id="7mtqnpq1YcAFe5gH_NoR-4" value="" style="shape=trapezoid;perimeter=trapezoidPerimeter;whiteSpace=wrap;html=1;fixedSize=1;" vertex="1" parent="1">
          <mxGeometry x="550" y="550" width="140" height="110" as="geometry" />
        </mxCell>
      </root>
    </mxGraphModel>
  </diagram>
</mxfile>
